<?xml version="1.0" standalone="no"?><!DOCTYPE svg PUBLIC "-//W3C//DTD SVG 1.1//EN" "http://www.w3.org/Graphics/SVG/1.1/DTD/svg11.dtd"><svg t="1588146354852" class="icon" viewBox="0 0 1024 1024" version="1.1" xmlns="http://www.w3.org/2000/svg" p-id="5052" xmlns:xlink="http://www.w3.org/1999/xlink" width="200" height="200"><defs><style type="text/css"></style></defs><path d="M566.208 607.168c-45.44-39.04-41.216-56.32-99.648-56.32-58.432 0-95.36 12.992-80.192 95.36 15.104 82.304 58.432 45.44 54.144 106.624-4.224 61.248 10.88 75.776 19.456 90.88 8.512 15.168 39.04 58.496 49.664-2.112a260.928 260.928 0 0 1 54.208-125.632c23.872-30.336 47.552-69.376 2.112-108.16l0.256-0.64z m-160.896-142.72c2.176-30.336 52.096-62.72 86.656-77.888 34.56-15.168 64-19.392 60.544-45.44-3.392-26.048-12.992-45.44-64-45.44-50.944 0-30.272 71.488-73.6 28.16-43.264-43.328 8.768-30.272 30.336-41.152 21.504-10.88 42.624-49.728 6.592-52.096-36.032-2.304-30.272 17.28-60.608 6.656-30.272-10.688-42.624 38.784-62.72 30.272a289.92 289.92 0 0 1-69.76-54.208 357.312 357.312 0 0 0-103.872 140.8 179.84 179.84 0 0 0 45.44 110.528s19.392 47.552 142.912 106.688c0 0 23.936 2.112-4.224-26.048-28.16-28.16-56.32-60.608-23.936-77.888 32.448-17.28 42.688-17.28 52.096 17.28 9.344 34.56 36.864 13.056 39.04-19.392l-0.896-0.832z m494.336 10.624a19.2 19.2 0 0 0-2.176-10.88c0.064-8.128-1.344-16.256-4.224-23.872 0-4.288-2.176-8.768-2.176-12.992-2.112-8.768-4.224-15.168-6.592-23.936 0-4.224-2.112-6.592-2.112-10.88-4.288-10.88-6.656-21.312-10.88-30.272l-6.656-12.992c-2.112-6.656-6.592-10.88-8.704-17.28-2.176-6.4-6.656-10.88-8.768-15.168a44.992 44.992 0 0 0-8.768-12.992c-4.224-4.288-6.592-10.88-10.88-15.168-4.224-4.288-4.224-6.592-6.592-8.768a421.312 421.312 0 0 0-52.032-56.32c-2.176 0-2.176-2.112-4.288-2.112a188.8 188.8 0 0 0-21.312-17.28h-2.176A307.008 307.008 0 0 0 640 148.288a169.152 169.152 0 0 1-34.56 47.552 27.328 27.328 0 0 0 19.392 49.728s-10.88 10.88 0 49.664c10.88 38.848 28.16 47.616 82.368 26.048 23.872-8.768 41.152-4.288 39.04 19.392-6.592 49.728-42.688 47.616-15.168 128 17.28 49.728 60.608 67.2 77.888 106.688 8.768 21.312 42.688 39.04 71.488 54.208 2.112-10.88 6.592-21.376 8.704-30.336 0-4.224 2.176-8.704 2.176-12.992 2.112-8.768 2.112-15.168 4.224-23.872a19.2 19.2 0 0 1 2.176-10.88c0-10.88 2.112-23.936 2.112-34.56 2.176-13.632 2.176-27.52 0-41.216l-0.192-0.64zM752.192 602.88a25.408 25.408 0 0 0-2.112 41.152c12.992 10.88 39.04 26.048 47.552 0 8.576-25.984-29.632-49.92-45.44-41.152z" p-id="5053"></path><path d="M512 64a448 448 0 1 1 0 896A448 448 0 0 1 512 64z m0-64a512 512 0 1 0 0 1024A512 512 0 0 0 512 0z" p-id="5054"></path></svg>